<svg id="Capa_1" enable-background="new 0 0 512 512" height="512" viewBox="0 0 512 512" width="512" xmlns="http://www.w3.org/2000/svg"><g fill="#595959"><path d="m15.581 238.827h46.467v30.305h-46.467z" transform="matrix(0 1 -1 0 292.795 215.165)"/><path d="m449.951 238.827h46.467v30.305h-46.467z" transform="matrix(0 1 -1 0 727.165 -219.205)"/><path d="m451.972 483.287h30.304v-30.305h-40.406z"/><path d="m60.028 483.287h-30.304v-30.305h40.406z"/><path d="m442.88 218.624h-40.407v-60.61h30.407c5.523 0 10 4.477 10 10z"/><path d="m69.12 218.624h40.407v-60.61h-30.407c-5.523 0-10 4.477-10 10z"/></g><path d="m111.042 28.713h290.927v189.911h-290.927z" fill="#e4fbef"/><path d="m384.291 28.713v161.626c0 5.579-4.523 10.102-10.102 10.102h-263.147v18.183h290.927v-189.911z" fill="#d3f9e2"/><path d="m53.967 218.624h404.065v58.589h-404.065z" fill="#e27a66"/><path d="m442.88 218.624v33.335c0 5.579-4.523 10.102-10.102 10.102h-378.811v15.152h404.065v-58.589z" fill="#df6b57"/><path d="m473.185 277.213 31.315 105.057v70.712h-497v-70.712l31.315-105.057z" fill="#dd544f"/><path d="m37.805 422.677v-37.378l21.213-77.781h393.964l21.213 77.781v37.378z" fill="#595959"/><path d="m51.783 305.544-21.214 77.781c-.176.644-.265 1.307-.265 1.974v37.377c0 4.142 3.357 7.5 7.5 7.5h436.391c4.143 0 7.5-3.358 7.5-7.5v-37.377c0-.667-.089-1.33-.265-1.974l-21.214-77.781c-.89-3.263-3.854-5.526-7.235-5.526h-393.962c-3.382 0-6.346 2.264-7.236 5.526zm395.47 9.474 19.442 71.286v28.873h-421.39v-28.873l19.442-71.286z"/><path d="m511.688 380.128-28.441-95.415h5.091c4.143 0 7.5-3.358 7.5-7.5v-46.467c0-4.142-3.357-7.5-7.5-7.5h-22.805v-4.622c0-4.142-3.357-7.5-7.5-7.5h-7.652v-43.008c0-9.706-7.896-17.602-17.602-17.602h-23.31v-121.801c0-4.142-3.357-7.5-7.5-7.5h-192.422c-4.143 0-7.5 3.358-7.5 7.5s3.357 7.5 7.5 7.5h184.922v174.911h-54.969c-4.143 0-7.5 3.358-7.5 7.5s3.357 7.5 7.5 7.5h111.032v43.589h-289.532c-4.143 0-7.5 3.358-7.5 7.5s3.357 7.5 7.5 7.5h306.594l29.406 98.652v62.117h-482v-62.117l29.406-98.651h81.531c4.143 0 7.5-3.358 7.5-7.5s-3.357-7.5-7.5-7.5h-64.47v-43.589h243.033c4.143 0 7.5-3.358 7.5-7.5s-3.357-7.5-7.5-7.5h-185.958v-174.912h56c4.143 0 7.5-3.358 7.5-7.5s-3.357-7.5-7.5-7.5h-63.5c-4.143 0-7.5 3.358-7.5 7.5v121.801h-24.32c-9.705 0-17.602 7.896-17.602 17.602v43.008h-7.652c-4.143 0-7.5 3.358-7.5 7.5v4.622h-22.805c-4.143 0-7.5 3.358-7.5 7.5v46.467c0 4.142 3.357 7.5 7.5 7.5h5.091l-28.441 95.415c-.208.695-.313 1.417-.313 2.143v70.711c0 4.142 3.357 7.5 7.5 7.5h14.724v22.805c0 4.142 3.357 7.5 7.5 7.5h30.305c3.229 0 6.095-2.066 7.115-5.128l8.392-25.176h360.929l8.392 25.176c1.021 3.063 3.887 5.128 7.115 5.128h30.305c4.143 0 7.5-3.358 7.5-7.5v-22.805h14.723c4.143 0 7.5-3.358 7.5-7.5v-70.711c0-.726-.105-1.448-.312-2.143zm-102.219-214.614h23.31c1.435 0 2.602 1.167 2.602 2.602v43.008h-25.911v-45.61zm71.368 72.732v31.467h-7.652-7.652v-31.467zm-404.217-70.13c0-1.435 1.167-2.602 2.602-2.602h24.32v45.61h-26.922zm-45.457 70.13h15.305v31.467h-7.652-7.652v-31.467zm23.46 237.541h-17.399v-15.305h22.501zm420.153 0h-17.399l-5.101-15.305h22.501v15.305z"/><path d="m94.374 339.262h20.203c4.143 0 7.5-3.358 7.5-7.5s-3.357-7.5-7.5-7.5h-20.203c-4.143 0-7.5 3.358-7.5 7.5s3.357 7.5 7.5 7.5z"/><path d="m144.882 339.262h20.203c4.143 0 7.5-3.358 7.5-7.5s-3.357-7.5-7.5-7.5h-20.203c-4.143 0-7.5 3.358-7.5 7.5s3.357 7.5 7.5 7.5z"/><path d="m195.391 339.262h20.203c4.143 0 7.5-3.358 7.5-7.5s-3.357-7.5-7.5-7.5h-20.203c-4.143 0-7.5 3.358-7.5 7.5s3.357 7.5 7.5 7.5z"/><path d="m245.898 339.262h20.203c4.143 0 7.5-3.358 7.5-7.5s-3.357-7.5-7.5-7.5h-20.203c-4.143 0-7.5 3.358-7.5 7.5s3.358 7.5 7.5 7.5z"/><path d="m296.406 339.262h20.203c4.143 0 7.5-3.358 7.5-7.5s-3.357-7.5-7.5-7.5h-20.203c-4.143 0-7.5 3.358-7.5 7.5s3.358 7.5 7.5 7.5z"/><path d="m346.915 339.262h20.203c4.143 0 7.5-3.358 7.5-7.5s-3.357-7.5-7.5-7.5h-20.203c-4.143 0-7.5 3.358-7.5 7.5s3.357 7.5 7.5 7.5z"/><path d="m397.423 339.262h20.203c4.143 0 7.5-3.358 7.5-7.5s-3.357-7.5-7.5-7.5h-20.203c-4.143 0-7.5 3.358-7.5 7.5s3.357 7.5 7.5 7.5z"/><path d="m69.12 370.577h20.203c4.143 0 7.5-3.358 7.5-7.5s-3.357-7.5-7.5-7.5h-20.203c-4.143 0-7.5 3.358-7.5 7.5s3.358 7.5 7.5 7.5z"/><path d="m139.831 355.577h-20.203c-4.143 0-7.5 3.358-7.5 7.5s3.357 7.5 7.5 7.5h20.203c4.143 0 7.5-3.358 7.5-7.5s-3.357-7.5-7.5-7.5z"/><path d="m170.136 370.577h20.204c4.143 0 7.5-3.358 7.5-7.5s-3.357-7.5-7.5-7.5h-20.204c-4.143 0-7.5 3.358-7.5 7.5s3.357 7.5 7.5 7.5z"/><path d="m240.848 370.577c4.143 0 7.5-3.358 7.5-7.5s-3.357-7.5-7.5-7.5h-20.203c-4.143 0-7.5 3.358-7.5 7.5s3.357 7.5 7.5 7.5z"/><path d="m291.355 370.577c4.143 0 7.5-3.358 7.5-7.5s-3.357-7.5-7.5-7.5h-20.203c-4.143 0-7.5 3.358-7.5 7.5s3.357 7.5 7.5 7.5z"/><path d="m341.864 355.577h-20.204c-4.143 0-7.5 3.358-7.5 7.5s3.357 7.5 7.5 7.5h20.204c4.143 0 7.5-3.358 7.5-7.5s-3.357-7.5-7.5-7.5z"/><path d="m392.372 355.577h-20.203c-4.143 0-7.5 3.358-7.5 7.5s3.357 7.5 7.5 7.5h20.203c4.143 0 7.5-3.358 7.5-7.5s-3.357-7.5-7.5-7.5z"/><path d="m415.177 363.077c0 4.142 3.357 7.5 7.5 7.5h20.203c4.143 0 7.5-3.358 7.5-7.5s-3.357-7.5-7.5-7.5h-20.203c-4.143 0-7.5 3.358-7.5 7.5z"/><path d="m69.12 402.902h20.203c4.143 0 7.5-3.358 7.5-7.5s-3.357-7.5-7.5-7.5h-20.203c-4.143 0-7.5 3.358-7.5 7.5s3.358 7.5 7.5 7.5z"/><path d="m139.831 387.902h-20.203c-4.143 0-7.5 3.358-7.5 7.5s3.357 7.5 7.5 7.5h20.203c4.143 0 7.5-3.358 7.5-7.5s-3.357-7.5-7.5-7.5z"/><path d="m341.864 387.902h-171.728c-4.143 0-7.5 3.358-7.5 7.5s3.357 7.5 7.5 7.5h171.729c4.143 0 7.5-3.358 7.5-7.5s-3.358-7.5-7.501-7.5z"/><path d="m392.372 387.902h-20.203c-4.143 0-7.5 3.358-7.5 7.5s3.357 7.5 7.5 7.5h20.203c4.143 0 7.5-3.358 7.5-7.5s-3.357-7.5-7.5-7.5z"/><path d="m442.88 387.902h-20.203c-4.143 0-7.5 3.358-7.5 7.5s3.357 7.5 7.5 7.5h20.203c4.143 0 7.5-3.358 7.5-7.5s-3.358-7.5-7.5-7.5z"/></svg>